<svg width="100" height="100" viewBox="0 0 100 100" fill="none" xmlns="http://www.w3.org/2000/svg">
<path d="M54.1668 87.5L62.5002 83.3333L70.8335 87.5V58.3333H54.1668M70.8335 37.5V29.1667L62.5002 33.3333L54.1668 29.1667V37.5L45.8335 41.6667L54.1668 45.8333V54.1667L62.5002 50L70.8335 54.1667V45.8333L79.1668 41.6667M83.3335 12.5H16.6668C14.4567 12.5 12.3371 13.378 10.7743 14.9408C9.21147 16.5036 8.3335 18.6232 8.3335 20.8333V62.5C8.3335 64.7101 9.21147 66.8298 10.7743 68.3926C12.3371 69.9554 14.4567 70.8333 16.6668 70.8333H45.8335V62.5H16.6668V20.8333H83.3335V62.5H79.1668V70.8333H83.3335C85.5436 70.8333 87.6632 69.9554 89.2261 68.3926C90.7888 66.8298 91.6668 64.7101 91.6668 62.5V20.8333C91.6668 18.6232 90.7888 16.5036 89.2261 14.9408C87.6632 13.378 85.5436 12.5 83.3335 12.5ZM45.8335 33.3333H20.8335V25H45.8335M37.5002 45.8333H20.8335V37.5H37.5002M45.8335 58.3333H20.8335V50H45.8335V58.3333Z" fill="white"/>
</svg>
