<svg width="100" height="100" viewBox="0 0 100 100" fill="none" xmlns="http://www.w3.org/2000/svg">
<path d="M8.33325 8.33325H91.6666V16.6666H83.3333V91.9999L76.5624 86.5833L68.8916 80.4499L62.1416 86.4499L59.3749 88.9082L56.6083 86.4499L49.9999 80.5707L43.3916 86.4457L40.6249 88.9041L37.8583 86.4457L31.1083 80.4457L23.4374 86.5833L16.6666 91.9999V16.6666H8.33325V8.33325ZM24.9999 16.6666V74.6666L28.6458 71.7499L31.3916 69.5499L34.0166 71.8833L40.6249 77.7583L47.2333 71.8833L49.9999 69.4249L52.7666 71.8833L59.3749 77.7583L65.9833 71.8833L68.6082 69.5499L71.3541 71.7458L74.9999 74.6624V16.6666H24.9999ZM33.3333 29.1666H66.6666V37.4999H33.3333V29.1666ZM41.6666 45.8333H37.4999V54.1666H62.4999V45.8333H41.6666Z" fill="white"/>
</svg>
