<svg width="100" height="100" viewBox="0 0 100 100" fill="none" xmlns="http://www.w3.org/2000/svg">
<path d="M0 18.75V25H59.375V71.875H40.1375C38.7437 66.5031 33.9125 62.5 28.125 62.5C22.3375 62.5 17.5063 66.5031 16.1125 71.875H12.5V56.25H6.25V78.125H16.1125C17.5063 83.4969 22.3375 87.5 28.125 87.5C33.9125 87.5 38.7437 83.4969 40.1375 78.125H66.1125C67.5062 83.4969 72.3375 87.5 78.125 87.5C83.9125 87.5 88.7438 83.4969 90.1375 78.125H100V52.6375L99.8031 52.1469L93.5531 33.3969L92.875 31.25H65.625V18.75H0ZM3.125 31.25V37.5H31.25V31.25H3.125ZM65.625 37.5H88.3781L93.75 53.5156V71.875H90.1375C88.7438 66.5031 83.9125 62.5 78.125 62.5C72.3375 62.5 67.5062 66.5031 66.1125 71.875H65.625V37.5ZM6.25 43.75V50H25V43.75H6.25ZM28.125 68.75C31.6156 68.75 34.375 71.5094 34.375 75C34.375 78.4906 31.6156 81.25 28.125 81.25C24.6344 81.25 21.875 78.4906 21.875 75C21.875 71.5094 24.6344 68.75 28.125 68.75ZM78.125 68.75C81.6156 68.75 84.375 71.5094 84.375 75C84.375 78.4906 81.6156 81.25 78.125 81.25C74.6344 81.25 71.875 78.4906 71.875 75C71.875 71.5094 74.6344 68.75 78.125 68.75Z" fill="white"/>
</svg>
